<svg xmlns="http://www.w3.org/2000/svg" width="48" height="220" viewBox="0 0 48 220" fill="none">
  <path d="M2.09815e-06 -3.81596e-07C1.82261e-06 3.15172 0.620775 6.27259 1.82689 9.1844C3.033 12.0962 4.80083 14.742 7.02943 16.9706C9.25804 19.1992 11.9038 20.967 14.8156 22.1731C17.7274 23.3792 20.8483 24 24 24C27.1517 24 30.2726 23.3792 33.1844 22.1731C36.0962 20.967 38.742 19.1992 40.9706 16.9706C43.1992 14.742 44.967 12.0962 46.1731 9.1844C47.3792 6.27259 48 3.15173 48 1.90735e-06L2.09815e-06 -3.81596e-07Z" fill="white"/>
  <path d="M48 220C48 216.848 47.3792 213.727 46.1731 210.815C44.967 207.904 43.1992 205.258 40.9706 203.029C38.742 200.801 36.0962 199.033 33.1844 197.827C30.2726 196.621 27.1517 196 24 196C20.8483 196 17.7274 196.621 14.8156 197.827C11.9038 199.033 9.25804 200.801 7.02944 203.029C4.80083 205.258 3.033 207.904 1.82689 210.815C0.620778 213.727 -2.75532e-07 216.848 0 220L48 220Z" fill="white"/>
  <line x1="25" y1="32" x2="25" y2="188" stroke="white" stroke-width="2" stroke-dasharray="5 5"/>
</svg>